<svg width="26" height="25" viewBox="0 0 26 25" fill="none" xmlns="http://www.w3.org/2000/svg">
<path d="M24 7.00004H19.615C19.6637 6.95879 19.7137 6.91879 19.7612 6.87504C20.1409 6.53776 20.4468 6.12577 20.66 5.66485C20.8731 5.20393 20.9889 4.70398 21 4.19629C21.0164 3.64088 20.9191 3.08798 20.7142 2.57152C20.5092 2.05506 20.2008 1.58596 19.8079 1.19299C19.4151 0.80003 18.9461 0.491506 18.4297 0.286362C17.9133 0.0812172 17.3604 -0.0162185 16.805 3.61928e-05C16.2971 0.010976 15.7969 0.126642 15.3358 0.339795C14.8746 0.552947 14.4624 0.858997 14.125 1.23879C13.6581 1.7799 13.2785 2.39059 13 3.04879C12.7215 2.39059 12.3419 1.7799 11.875 1.23879C11.5376 0.858997 11.1254 0.552947 10.6642 0.339795C10.2031 0.126642 9.70291 0.010976 9.195 3.61928e-05C8.63959 -0.0162185 8.08671 0.0812172 7.57032 0.286362C7.05392 0.491506 6.58491 0.80003 6.19206 1.19299C5.79922 1.58596 5.49083 2.05506 5.28584 2.57152C5.08085 3.08798 4.98358 3.64088 5 4.19629C5.01111 4.70398 5.12686 5.20393 5.34001 5.66485C5.55315 6.12577 5.85911 6.53776 6.23875 6.87504C6.28625 6.91629 6.33625 6.95629 6.385 7.00004H2C1.46957 7.00004 0.960859 7.21075 0.585786 7.58582C0.210714 7.9609 0 8.4696 0 9.00004V13C0 13.5305 0.210714 14.0392 0.585786 14.4142C0.960859 14.7893 1.46957 15 2 15V23C2 23.5305 2.21071 24.0392 2.58579 24.4142C2.96086 24.7893 3.46957 25 4 25H11.5C11.6326 25 11.7598 24.9474 11.8536 24.8536C11.9473 24.7598 12 24.6326 12 24.5V13H2V9.00004H12V13H14V9.00004H24V13H14V24.5C14 24.6326 14.0527 24.7598 14.1464 24.8536C14.2402 24.9474 14.3674 25 14.5 25H22C22.5304 25 23.0391 24.7893 23.4142 24.4142C23.7893 24.0392 24 23.5305 24 23V15C24.5304 15 25.0391 14.7893 25.4142 14.4142C25.7893 14.0392 26 13.5305 26 13V9.00004C26 8.4696 25.7893 7.9609 25.4142 7.58582C25.0391 7.21075 24.5304 7.00004 24 7.00004ZM7.56375 5.37504C7.3889 5.2167 7.24867 5.02393 7.15187 4.80882C7.05508 4.59371 7.00379 4.36091 7.00125 4.12504C6.99493 3.84866 7.04383 3.57381 7.14509 3.31658C7.24634 3.05935 7.39792 2.82491 7.59093 2.627C7.78395 2.4291 8.01452 2.27171 8.26914 2.16405C8.52376 2.05639 8.79731 2.00063 9.07375 2.00004H9.135C9.37087 2.00258 9.60367 2.05386 9.81878 2.15066C10.0339 2.24746 10.2267 2.38769 10.385 2.56254C11.4338 3.74754 11.8038 5.71254 11.9338 6.92754C10.7137 6.79879 8.75 6.42879 7.56375 5.37504ZM18.4387 5.37504C17.2525 6.42504 15.2837 6.79504 14.0637 6.92504C14.2125 5.61129 14.625 3.68754 15.625 2.56379C15.7833 2.38894 15.9761 2.24871 16.1912 2.15191C16.4063 2.05511 16.6391 2.00383 16.875 2.00129H16.9363C17.2127 2.00301 17.486 2.05991 17.7402 2.16863C17.9944 2.27735 18.2244 2.43571 18.4166 2.63443C18.6088 2.83315 18.7594 3.06824 18.8596 3.32592C18.9597 3.58359 19.0075 3.85867 19 4.13504C18.9959 4.36931 18.9438 4.60025 18.8468 4.81355C18.7498 5.02684 18.6101 5.21795 18.4363 5.37504H18.4387Z" fill="black"/>
</svg>
