<svg width="20" height="26" viewBox="0 0 20 26" fill="none" xmlns="http://www.w3.org/2000/svg">
<path d="M20 1V19C20 19.2652 19.8946 19.5196 19.7071 19.7071C19.5196 19.8946 19.2652 20 19 20H3.41374L7.70749 24.2925C7.8004 24.3854 7.8741 24.4957 7.92439 24.6171C7.97467 24.7385 8.00055 24.8686 8.00055 25C8.00055 25.1314 7.97467 25.2615 7.92439 25.3829C7.8741 25.5043 7.8004 25.6146 7.70749 25.7075C7.61458 25.8004 7.50428 25.8741 7.38289 25.9244C7.2615 25.9747 7.13139 26.0006 6.99999 26.0006C6.8686 26.0006 6.73849 25.9747 6.6171 25.9244C6.4957 25.8741 6.3854 25.8004 6.29249 25.7075L0.292493 19.7075C0.199517 19.6146 0.125758 19.5043 0.0754337 19.3829C0.0251094 19.2615 -0.000793457 19.1314 -0.000793457 19C-0.000793457 18.8686 0.0251094 18.7385 0.0754337 18.6171C0.125758 18.4957 0.199517 18.3854 0.292493 18.2925L6.29249 12.2925C6.48013 12.1049 6.73463 11.9994 6.99999 11.9994C7.26536 11.9994 7.51985 12.1049 7.70749 12.2925C7.89513 12.4801 8.00055 12.7346 8.00055 13C8.00055 13.2654 7.89513 13.5199 7.70749 13.7075L3.41374 18H18V1C18 0.734784 18.1053 0.48043 18.2929 0.292893C18.4804 0.105357 18.7348 0 19 0C19.2652 0 19.5196 0.105357 19.7071 0.292893C19.8946 0.48043 20 0.734784 20 1Z" fill="black"/>
</svg>
